<svg viewBox="0 0 12 12" xmlns="http://www.w3.org/2000/svg" fill-rule="evenodd" clip-rule="evenodd" stroke-linejoin="round" stroke-miterlimit="2"><path d="M2.979 3.546v.012c0 .145.119.264.264.264h.925c.152 0 .276-.126.295-.279.1-.73.601-1.263 1.496-1.263.763 0 1.463.382 1.463 1.302 0 .707-.416 1.032-1.074 1.527-.75.545-1.344 1.18-1.301 2.213l.003.242a.28.28 0 00.277.275h.905a.28.28 0 00.278-.28v-.117c0-.799.304-1.032 1.126-1.654.677-.516 1.386-1.09 1.386-2.291C9.022 1.813 7.6 1 6.043 1c-1.41 0-2.957.658-3.064 2.546zm1.735 6.422c0 .592.474 1.032 1.124 1.032.68 0 1.146-.44 1.146-1.032 0-.615-.467-1.048-1.146-1.048-.65 0-1.124.433-1.124 1.048z" fill="#ccc" fill-rule="nonzero"/></svg>