<svg viewBox="0 0 12 12" xmlns="http://www.w3.org/2000/svg" fill-rule="evenodd" clip-rule="evenodd" stroke-linejoin="round" stroke-miterlimit="2"><path d="M4.462 4.77c.169 0 .307.138.307.307v3.692a.309.309 0 01-.307.308.309.309 0 01-.308-.308V5.077c0-.17.139-.308.308-.308zM6 4.77c.169 0 .308.138.308.307v3.692A.309.309 0 016 9.077a.309.309 0 01-.308-.308V5.077c0-.17.139-.308.308-.308zm1.846.307a.309.309 0 00-.308-.308.309.309 0 00-.307.308v3.692c0 .17.138.308.307.308a.309.309 0 00.308-.308V5.077z" fill="#ccc" fill-rule="nonzero"/><path d="M10 3.23a.619.619 0 01-.615.616h-.308v5.539c0 .675-.556 1.23-1.23 1.23H4.153c-.675 0-1.23-.555-1.23-1.23V3.846h-.309A.619.619 0 012 3.231v-.616C2 2.278 2.278 2 2.615 2H4.77c0-.337.278-.615.616-.615h1.23c.338 0 .616.278.616.615h2.154c.337 0 .615.278.615.615v.616zm-6.389.616l-.073.036v5.503a.62.62 0 00.616.615h3.692a.619.619 0 00.616-.615V3.882l-.073-.036H3.611zm-.996-.615v-.616h6.77v.616h-6.77z" fill="#ccc"/></svg>