<svg viewBox="0 0 12 12" xmlns="http://www.w3.org/2000/svg" fill-rule="evenodd" clip-rule="evenodd" stroke-linejoin="round" stroke-miterlimit="2"><path d="M6.628 1.22c-.185-.627-1.071-.627-1.256 0l-.07.239a1.41 1.41 0 01-2.019.836l-.219-.12c-.573-.311-1.2.315-.888.889l.119.219a1.406 1.406 0 01-.836 2.019l-.24.07c-.626.185-.626 1.071 0 1.256l.24.07a1.41 1.41 0 01.836 2.02l-.12.218c-.311.573.315 1.2.889.888l.219-.119a1.406 1.406 0 012.019.837l.07.238c.185.627 1.071.627 1.256 0l.07-.239a1.41 1.41 0 012.02-.836l.218.12c.573.311 1.2-.315.888-.889l-.119-.218a1.407 1.407 0 01.837-2.02l.238-.07c.627-.185.627-1.071 0-1.256l-.239-.07a1.41 1.41 0 01-.836-2.019l.12-.219c.311-.573-.315-1.2-.889-.888l-.218.119a1.407 1.407 0 01-2.02-.836l-.071-.239h.001zm-1.975-.213c.395-1.342 2.299-1.342 2.694 0l.07.24a.657.657 0 00.942.389l.219-.12c1.23-.669 2.575.676 1.905 1.906l-.119.219a.655.655 0 00.389.941l.24.071c1.342.395 1.342 2.299 0 2.694l-.24.07a.657.657 0 00-.389.942l.12.219c.669 1.23-.677 2.575-1.906 1.905l-.219-.119a.655.655 0 00-.941.389l-.071.24c-.395 1.342-2.299 1.342-2.694 0l-.07-.24a.657.657 0 00-.942-.389l-.219.12c-1.23.669-2.574-.677-1.905-1.906l.12-.219a.658.658 0 00-.39-.941l-.24-.071c-1.342-.395-1.342-2.299 0-2.694l.24-.07a.657.657 0 00.39-.942l-.12-.219c-.669-1.23.676-2.574 1.905-1.905l.219.12a.658.658 0 00.941-.39l.071-.24z" fill="#ccc"/><path d="M6 4.316c-.924 0-1.685.76-1.685 1.684 0 .924.761 1.684 1.685 1.684S7.684 6.924 7.684 6c0-.924-.76-1.685-1.684-1.685zM3.565 6A2.446 2.446 0 016 3.565 2.446 2.446 0 018.435 6 2.446 2.446 0 016 8.435 2.446 2.446 0 013.565 6z" fill="#ccc"/></svg>