<?xml version="1.0" encoding="UTF-8" standalone="no"?>
<!DOCTYPE svg PUBLIC "-//W3C//DTD SVG 1.1//EN" "http://www.w3.org/Graphics/SVG/1.1/DTD/svg11.dtd">
<svg width="100%" height="100%" viewBox="0 0 1000 1000" version="1.1" xmlns="http://www.w3.org/2000/svg" xmlns:xlink="http://www.w3.org/1999/xlink" xml:space="preserve" xmlns:serif="http://www.serif.com/" style="fill-rule:evenodd;clip-rule:evenodd;stroke-linejoin:round;stroke-miterlimit:2;">
    <circle cx="500" cy="500" r="500" style="fill:rgb(47,184,255);"/>
    <g transform="matrix(1.80104,-0.0557738,0.0557738,1.80104,-428.408,-372.634)">
        <path d="M462.053,522.999C462.053,522.999 438.063,529.986 410.746,537.942C399.35,541.261 387.104,536.964 380.281,527.251C373.458,517.538 373.568,504.561 380.556,494.966C412.05,451.719 454.207,393.829 491.561,342.535C501.235,329.251 518.758,324.337 533.927,330.655C549.097,336.972 557.953,352.871 555.338,369.095C546.239,425.548 537.986,476.756 537.986,476.756C537.986,476.756 562.057,469.789 589.429,461.866C600.822,458.568 613.052,462.877 619.863,472.589C626.673,482.3 626.557,495.267 619.575,504.855C588.067,548.122 545.845,606.1 508.439,657.465C498.765,670.749 481.242,675.663 466.073,669.345C450.903,663.028 442.047,647.129 444.662,630.905C453.778,574.342 462.053,522.999 462.053,522.999Z" style="fill:white;"/>
    </g>
</svg>
