<svg viewBox="0 0 1000 1000" xmlns="http://www.w3.org/2000/svg" fill-rule="evenodd" clip-rule="evenodd" stroke-linejoin="round" stroke-miterlimit="2"><circle cx="500" cy="500" r="500" fill="#2fb8ff"/><path d="M432.938 543.538l-91.573 29.774c-20.34 6.613-42.635-.443-55.465-17.556-12.83-17.113-13.356-40.49-1.305-58.161l191.423-280.726c16.682-24.465 47.967-34.292 75.64-23.76 27.674 10.532 44.51 38.673 40.706 68.039-13.24 102.181-25.247 194.87-25.247 194.87l91.82-29.688c20.336-6.575 42.603.504 55.411 17.616 12.807 17.11 13.321 40.47 1.281 58.128L523.98 783.129c-16.682 24.465-47.968 34.292-75.64 23.76-27.674-10.532-44.51-38.672-40.706-68.038l25.304-195.313z" fill="#fff"/></svg>