<svg viewBox="0 0 12 12" xmlns="http://www.w3.org/2000/svg" fill-rule="evenodd" clip-rule="evenodd" stroke-linejoin="round" stroke-miterlimit="2"><path d="M6 11.25c2.88 0 5.25-2.37 5.25-5.25S8.88.75 6 .75.75 3.12.75 6 3.12 11.25 6 11.25zM6 12c3.292 0 6-2.708 6-6S9.292 0 6 0 0 2.708 0 6s2.708 6 6 6z" fill="#ccc"/><path d="M3.941 4.339v.008c0 .098.08.178.178.178h.622c.103 0 .186-.085.199-.188.068-.492.405-.85 1.007-.85.514 0 .985.257.985.876 0 .476-.28.695-.723 1.028-.505.367-.905.795-.876 1.49l.002.163a.188.188 0 00.187.185h.609a.189.189 0 00.187-.188v-.079c0-.538.205-.695.758-1.114.456-.347.933-.733.933-1.542 0-1.134-.957-1.681-2.005-1.681-.95 0-1.991.443-2.063 1.714zm1.168 4.323c0 .399.319.695.757.695.457 0 .771-.296.771-.695 0-.414-.314-.705-.771-.705-.438 0-.757.291-.757.705z" fill="#ccc" fill-rule="nonzero"/></svg>