<svg viewBox="0 0 12 12" xmlns="http://www.w3.org/2000/svg" fill-rule="evenodd" clip-rule="evenodd" stroke-linejoin="round" stroke-miterlimit="2"><path d="M4.125 4.5c.206 0 .375.169.375.375v4.5a.376.376 0 01-.375.375.376.376 0 01-.375-.375v-4.5c0-.206.169-.375.375-.375zM6 4.5c.206 0 .375.169.375.375v4.5A.376.376 0 016 9.75a.376.376 0 01-.375-.375v-4.5c0-.206.169-.375.375-.375zm2.25.375a.376.376 0 00-.375-.375.376.376 0 00-.375.375v4.5c0 .206.169.375.375.375a.376.376 0 00.375-.375v-4.5z" fill="#ccc" fill-rule="nonzero"/><path d="M10.875 2.625c0 .411-.339.75-.75.75H9.75v6.75c0 .823-.677 1.5-1.5 1.5h-4.5c-.823 0-1.5-.677-1.5-1.5v-6.75h-.375a.754.754 0 01-.75-.75v-.75c0-.411.339-.75.75-.75H4.5c0-.411.339-.75.75-.75h1.5c.411 0 .75.339.75.75h2.625c.411 0 .75.339.75.75v.75zm-7.786.75L3 3.419v6.706c0 .411.339.75.75.75h4.5c.411 0 .75-.339.75-.75V3.419l-.088-.044H3.089zm-1.214-.75v-.75h8.25v.75h-8.25z" fill="#ccc"/></svg>