<?xml version="1.0" encoding="UTF-8" standalone="no"?>
<!DOCTYPE svg PUBLIC "-//W3C//DTD SVG 1.1//EN" "http://www.w3.org/Graphics/SVG/1.1/DTD/svg11.dtd">
<svg width="100%" height="100%" viewBox="0 0 12 12" version="1.1" xmlns="http://www.w3.org/2000/svg" xmlns:xlink="http://www.w3.org/1999/xlink" xml:space="preserve" xmlns:serif="http://www.serif.com/" style="fill-rule:evenodd;clip-rule:evenodd;stroke-linejoin:round;stroke-miterlimit:2;">
    <g transform="matrix(1,0,0,1,0,0.375)">
        <path d="M4.125,4.125C4.331,4.125 4.5,4.294 4.5,4.5L4.5,9C4.5,9.206 4.331,9.375 4.125,9.375C3.919,9.375 3.75,9.206 3.75,9L3.75,4.5C3.75,4.294 3.919,4.125 4.125,4.125ZM6,4.125C6.206,4.125 6.375,4.294 6.375,4.5L6.375,9C6.375,9.206 6.206,9.375 6,9.375C5.794,9.375 5.625,9.206 5.625,9L5.625,4.5C5.625,4.294 5.794,4.125 6,4.125ZM8.25,4.5C8.25,4.294 8.081,4.125 7.875,4.125C7.669,4.125 7.5,4.294 7.5,4.5L7.5,9C7.5,9.206 7.669,9.375 7.875,9.375C8.081,9.375 8.25,9.206 8.25,9L8.25,4.5Z" style="fill:rgb(204,204,204);fill-rule:nonzero;"/>
    </g>
    <g transform="matrix(1,0,0,1,0,0.375)">
        <path d="M10.875,2.25C10.875,2.661 10.536,3 10.125,3L9.75,3L9.75,9.75C9.75,10.573 9.073,11.25 8.25,11.25L3.75,11.25C2.927,11.25 2.25,10.573 2.25,9.75L2.25,3L1.875,3C1.464,3 1.125,2.661 1.125,2.25L1.125,1.5C1.125,1.089 1.464,0.75 1.875,0.75L4.5,0.75C4.5,0.339 4.839,0 5.25,0L6.75,0C7.161,-0 7.5,0.339 7.5,0.75L10.125,0.75C10.536,0.75 10.875,1.089 10.875,1.5L10.875,2.25ZM3.089,3L3,3.044L3,9.75C3,10.161 3.339,10.5 3.75,10.5L8.25,10.5C8.661,10.5 9,10.161 9,9.75L9,3.044L8.912,3L3.089,3ZM1.875,2.25L1.875,1.5L10.125,1.5L10.125,2.25L1.875,2.25Z" style="fill:rgb(204,204,204);"/>
    </g>
</svg>
