<svg viewBox="0 0 12 12" xmlns="http://www.w3.org/2000/svg" fill-rule="evenodd" clip-rule="evenodd" stroke-linejoin="round" stroke-miterlimit="2"><path d="M4 4.4c.22 0 .4.18.4.4v4.8a.403.403 0 01-.4.4.403.403 0 01-.4-.4V4.8c0-.22.18-.4.4-.4zm2 0c.22 0 .4.18.4.4v4.8a.403.403 0 01-.4.4.403.403 0 01-.4-.4V4.8c0-.22.18-.4.4-.4zm2.4.4a.403.403 0 00-.4-.4.403.403 0 00-.4.4v4.8c0 .22.18.4.4.4a.403.403 0 00.4-.4V4.8z" fill="#ccc" fill-rule="nonzero"/><path d="M11.2 2.4c0 .438-.362.8-.8.8H10v7.2c0 .878-.722 1.6-1.6 1.6H3.6c-.878 0-1.6-.722-1.6-1.6V3.2h-.4a.807.807 0 01-.8-.8v-.8c0-.438.362-.8.8-.8h2.8c0-.438.362-.8.8-.8h1.6c.438 0 .8.362.8.8h2.8c.438 0 .8.362.8.8v.8zm-8.305.8l-.095.047V10.4c0 .438.362.8.8.8h4.8c.438 0 .8-.362.8-.8V3.247L9.106 3.2H2.895zM1.6 2.4v-.8h8.8v.8H1.6z" fill="#ccc"/></svg>