<svg viewBox="0 0 12 12" xmlns="http://www.w3.org/2000/svg" fill-rule="evenodd" clip-rule="evenodd" stroke-linejoin="round" stroke-miterlimit="2"><path d="M5.267 1.9c.158.077.26.238.26.415v7.37a.461.461 0 01-.748.36L2.603 8.303H.46A.462.462 0 010 7.843V4.157c0-.254.208-.461.46-.461h2.143l2.176-1.74a.46.46 0 01.488-.056zm-.66 1.373L3.05 4.516a.454.454 0 01-.287.102H.92v2.764h1.843a.46.46 0 01.287.1l1.555 1.245V3.273z" fill="#ccc"/><path d="M9.706 11.537A7.812 7.812 0 0012.001 6 7.812 7.812 0 009.706.463l-.652.652A6.888 6.888 0 0111.078 6a6.885 6.885 0 01-2.024 4.885l.652.652z" fill="#ccc" fill-rule="nonzero"/><path d="M8.403 10.234A5.976 5.976 0 0010.157 6a5.976 5.976 0 00-1.754-4.234l-.652.651A5.055 5.055 0 019.236 6a5.046 5.046 0 01-1.484 3.583l.65.651z" fill="#ccc" fill-rule="nonzero"/><path d="M7.1 8.932A4.137 4.137 0 008.314 6 4.137 4.137 0 007.1 3.068l-.651.652c.605.603.945 1.425.944 2.28a3.213 3.213 0 01-.944 2.28l.65.652z" fill="#ccc" fill-rule="nonzero"/></svg>